# xmcd
#
# Track frame offsets: 
#        150
#        7269
#        25323
#        46562
#        72754
#        95440
#        118094
#        135816
#        160432
#        171351
#        192783
#        209843
#        234858
#        253508
#        310637
#        317991
#        336775
#
# Disc length: 4602 seconds
#
# Revision: 0
# Processed by: cddbd v1.5.2PL0 Copyright (c) Steve Scherf et al.
# Submitted via: ExactAudioCopy v0.99pb1
#
DISCID=e611f811
DTITLE=stubnblues - aus sun und aus regn CD2
DYEAR=2007
DGENRE=R&B
TTITLE0=wenn der herbst langsam näherrückt
TTITLE1=alanech fia dii
TTITLE2=regn
TTITLE3=wiara wü
TTITLE4=tinto
TTITLE5=liad en suma
TTITLE6=ribisel
TTITLE7=ja sam junak
TTITLE8=wild night
TTITLE9=only a dream
TTITLE10=sag ma nix
TTITLE11=you make me feel so free
TTITLE12=steel my heart away
TTITLE13=demaziado
TTITLE14=geschenke
TTITLE15=whenever god shines his light on me
TTITLE16=verabschiedung
EXTD=
EXTT0=Live aus Linz - 21. April 2007\n
EXTT1=
EXTT2=
EXTT3=
EXTT4=
EXTT5=
EXTT6=
EXTT7=
EXTT8=
EXTT9=
EXTT10=
EXTT11=
EXTT12=
EXTT13=
EXTT14=
EXTT15=
EXTT16=
PLAYORDER=
